<svg xmlns="http://www.w3.org/2000/svg" xmlns:xlink="http://www.w3.org/1999/xlink" width="244" zoomAndPan="magnify" viewBox="0 0 183 98.249997" height="131" preserveAspectRatio="xMidYMid meet" version="1.0"><defs><g/><clipPath id="d4ac82e783"><path d="M 41 61 L 78 61 L 78 96.703125 L 41 96.703125 Z M 41 61 " clip-rule="nonzero"/></clipPath><clipPath id="5ed402b5ae"><path d="M 24 0 L 124.878906 0 L 124.878906 95 L 24 95 Z M 24 0 " clip-rule="nonzero"/></clipPath><clipPath id="f64f7adab1"><path d="M 0.414062 39 L 155.707031 39 L 155.707031 76 L 0.414062 76 Z M 0.414062 39 " clip-rule="nonzero"/></clipPath><clipPath id="0759474dc6"><rect x="0" width="156" y="0" height="37"/></clipPath><clipPath id="c3e9c68775"><rect x="0" width="156" y="0" height="97"/></clipPath></defs><g transform="matrix(1, 0, 0, 1, 16, 0)"><g clip-path="url(#c3e9c68775)"><g clip-path="url(#d4ac82e783)"><path fill="#1d97f1" d="M 77.183594 75.0625 C 74.144531 73.914062 71.585938 76.199219 69.164062 77.644531 C 66.578125 79.113281 64.078125 80.660156 61.730469 82.472656 C 56.484375 86.261719 50.621094 88.960938 45.101562 92.296875 C 46.296875 87.152344 47.128906 81.917969 48.113281 76.730469 C 48.710938 74.664062 49.363281 72.609375 49.824219 70.5 C 50.410156 67.753906 52.648438 64.03125 50.144531 61.683594 C 49.484375 62.085938 48.199219 63.503906 48.40625 64.335938 C 48.441406 66.238281 47.8125 68.113281 47.570312 70.007812 C 46.769531 73.25 45.605469 76.398438 45.144531 79.738281 C 44.039062 83.605469 43.578125 87.605469 42.664062 91.515625 C 42.253906 93.175781 40.25 97.207031 43.699219 96.445312 C 52.070312 92.21875 59.753906 86.761719 67.789062 81.960938 C 70.125 80.570312 72.535156 79.179688 74.980469 78.046875 C 76.011719 77.382812 76.273438 75.914062 77.414062 75.269531 C 77.339844 75.207031 77.265625 75.128906 77.183594 75.0625 Z M 77.183594 75.0625 " fill-opacity="1" fill-rule="nonzero"/></g><g clip-path="url(#5ed402b5ae)"><path fill="#1d97f1" d="M 125.023438 37.066406 C 124.710938 36.402344 123.207031 35.039062 122.429688 35.28125 C 120.582031 35.34375 118.753906 34.789062 116.902344 34.660156 C 113.71875 34.046875 110.582031 33.191406 107.289062 33.214844 C 102.03125 32.695312 96.714844 32.417969 91.71875 30.554688 C 89.496094 27.105469 88.242188 23.234375 86.261719 19.628906 C 84.234375 16.328125 82.332031 12.945312 80.503906 9.542969 C 79.25 7.214844 78.078125 4.855469 76.949219 2.464844 C 76.324219 1.542969 75.191406 1.316406 74.183594 0.675781 C 74.113281 0.472656 74.019531 0.269531 73.886719 0.0664062 C 73.019531 0.433594 72.730469 1.265625 72.085938 1.871094 C 71.078125 2.722656 71.273438 4.058594 70.8125 5.183594 C 70.097656 7.277344 69.347656 9.367188 68.617188 11.457031 C 68.039062 13.125 67.320312 14.722656 66.484375 16.285156 C 64.328125 21.175781 62.535156 26.253906 60.347656 31.140625 C 55.753906 32.203125 51.078125 32.707031 46.363281 32.726562 C 39.636719 33.148438 32.957031 33.679688 26.238281 34.421875 C 23.699219 34.996094 24.457031 37.53125 26.195312 38.664062 C 32.121094 44.257812 38.054688 50.332031 43.917969 56.023438 C 47.21875 59.363281 46.414062 59.625 51.246094 61.375 C 50.648438 57.261719 46.96875 54.628906 44.109375 51.953125 C 39 46.800781 33.402344 42.167969 28.335938 36.972656 C 39.46875 36.339844 50.671875 35.679688 61.652344 33.566406 C 62.03125 33.484375 62.367188 33.222656 62.523438 32.835938 C 64.15625 28.835938 65.570312 24.753906 67.125 20.726562 C 68.386719 17.921875 69.679688 15.128906 70.785156 12.253906 C 71.871094 9.566406 73.394531 7.027344 74.027344 4.175781 C 75.683594 6.847656 77.113281 9.640625 78.628906 12.382812 C 80.441406 15.148438 82.28125 17.921875 83.835938 20.839844 C 85.503906 24.347656 86.609375 28.042969 88.679688 31.402344 C 89.125 32.066406 89.4375 33.070312 90.285156 33.3125 C 94.792969 34.238281 99.304688 35.21875 103.910156 35.488281 C 106.070312 35.625 108.355469 35.539062 110.503906 35.777344 C 112.515625 36.136719 114.507812 36.613281 116.527344 36.941406 C 118.550781 37.324219 120.507812 38.296875 122.605469 38.101562 C 119.960938 39.414062 118.359375 41.917969 116.195312 43.835938 C 110.324219 48.878906 104.398438 53.933594 98.269531 58.6875 C 97.558594 59.339844 98.292969 60.445312 98.3125 61.265625 C 98.609375 62.847656 98.738281 64.464844 99.042969 66.046875 C 100.667969 74.042969 102.640625 82.316406 104.449219 90.273438 C 100.3125 87.824219 96.070312 85.550781 92.230469 82.644531 C 88.945312 80.980469 80.730469 73.359375 77.398438 76.519531 C 77.785156 77.179688 78.46875 77.390625 78.988281 77.992188 C 79.703125 78.960938 80.964844 78.824219 81.949219 79.378906 C 83.84375 80.277344 85.707031 81.320312 87.566406 82.378906 C 91.453125 84.898438 95.152344 87.738281 99.242188 89.972656 C 101.0625 90.914062 105.023438 94.367188 106.757812 94.257812 C 108.933594 93.632812 106.753906 89.996094 106.664062 88.433594 C 105.753906 85.136719 105.234375 81.773438 104.726562 78.398438 C 103.578125 72.253906 102.023438 66.207031 100.910156 60.058594 C 108.136719 53.980469 116.144531 48.589844 122.859375 41.808594 C 123.816406 40.652344 123.886719 39.203125 124.34375 37.695312 C 124.566406 37.554688 124.792969 37.359375 125.023438 37.066406 Z M 125.023438 37.066406 " fill-opacity="1" fill-rule="nonzero"/></g><g clip-path="url(#f64f7adab1)"><g transform="matrix(1, 0, 0, 1, -0.000000000000003553, 39)"><g clip-path="url(#0759474dc6)"><g fill="#1d97f1" fill-opacity="0.7216"><g transform="translate(2.725256, 32.705545)"><g><path d="M 14.734375 -8.21875 C 14.734375 -6.976562 14.492188 -5.851562 14.015625 -4.84375 C 13.546875 -3.832031 12.90625 -2.957031 12.09375 -2.21875 C 11.28125 -1.488281 10.320312 -0.925781 9.21875 -0.53125 C 8.125 -0.132812 6.945312 0.0625 5.6875 0.0625 C 4.800781 0.0625 3.914062 -0.171875 3.03125 -0.640625 C 2.144531 -1.117188 1.289062 -1.878906 0.46875 -2.921875 L 2.921875 -7.75 C 3.078125 -7.457031 3.3125 -7.160156 3.625 -6.859375 C 3.9375 -6.566406 4.285156 -6.304688 4.671875 -6.078125 C 5.054688 -5.859375 5.441406 -5.675781 5.828125 -5.53125 C 6.222656 -5.394531 6.578125 -5.328125 6.890625 -5.328125 C 7.148438 -5.328125 7.425781 -5.367188 7.71875 -5.453125 C 8.007812 -5.546875 8.273438 -5.679688 8.515625 -5.859375 C 8.753906 -6.035156 8.945312 -6.238281 9.09375 -6.46875 C 9.238281 -6.695312 9.3125 -6.96875 9.3125 -7.28125 C 9.3125 -7.8125 9.140625 -8.304688 8.796875 -8.765625 C 8.453125 -9.222656 8.023438 -9.65625 7.515625 -10.0625 C 7.003906 -10.46875 6.445312 -10.878906 5.84375 -11.296875 C 5.25 -11.722656 4.703125 -12.171875 4.203125 -12.640625 C 3.703125 -13.109375 3.273438 -13.628906 2.921875 -14.203125 C 2.566406 -14.773438 2.390625 -15.421875 2.390625 -16.140625 C 2.390625 -17.285156 2.734375 -18.359375 3.421875 -19.359375 C 4.109375 -20.359375 4.96875 -21.21875 6 -21.9375 C 7.03125 -22.65625 8.15625 -23.222656 9.375 -23.640625 C 10.59375 -24.066406 11.75 -24.28125 12.84375 -24.28125 C 13.4375 -24.28125 14 -24.207031 14.53125 -24.0625 C 15.0625 -23.914062 15.519531 -23.679688 15.90625 -23.359375 C 16.300781 -23.046875 16.613281 -22.644531 16.84375 -22.15625 C 17.082031 -21.664062 17.203125 -21.054688 17.203125 -20.328125 C 17.203125 -20.015625 17.171875 -19.703125 17.109375 -19.390625 C 17.054688 -19.078125 17.007812 -18.742188 16.96875 -18.390625 L 12.140625 -17 C 12.179688 -17.175781 12.21875 -17.351562 12.25 -17.53125 C 12.289062 -17.707031 12.3125 -17.882812 12.3125 -18.0625 C 12.3125 -18.726562 12.191406 -19.207031 11.953125 -19.5 C 11.722656 -19.800781 11.421875 -19.953125 11.046875 -19.953125 C 10.867188 -19.953125 10.648438 -19.882812 10.390625 -19.75 C 10.140625 -19.625 9.882812 -19.453125 9.625 -19.234375 C 9.375 -19.023438 9.160156 -18.773438 8.984375 -18.484375 C 8.804688 -18.203125 8.71875 -17.894531 8.71875 -17.5625 C 8.71875 -17.03125 8.863281 -16.585938 9.15625 -16.234375 C 9.457031 -15.878906 9.828125 -15.546875 10.265625 -15.234375 C 10.710938 -14.921875 11.195312 -14.601562 11.71875 -14.28125 C 12.25 -13.96875 12.734375 -13.554688 13.171875 -13.046875 C 13.617188 -12.535156 13.988281 -11.894531 14.28125 -11.125 C 14.582031 -10.363281 14.734375 -9.394531 14.734375 -8.21875 Z M 14.734375 -8.21875 "/></g></g></g><g fill="#1d97f1" fill-opacity="0.7216"><g transform="translate(17.027504, 32.705545)"><g><path d="M -1 -0.203125 C -0.0195312 -3.148438 0.910156 -6.039062 1.796875 -8.875 C 2.171875 -10.070312 2.554688 -11.328125 2.953125 -12.640625 C 3.359375 -13.953125 3.757812 -15.25 4.15625 -16.53125 C 4.550781 -17.820312 4.921875 -19.066406 5.265625 -20.265625 C 5.609375 -21.460938 5.914062 -22.566406 6.1875 -23.578125 C 7.40625 -23.578125 8.554688 -23.644531 9.640625 -23.78125 C 10.734375 -23.914062 11.910156 -24.039062 13.171875 -24.15625 C 13.109375 -23.664062 13.035156 -23.113281 12.953125 -22.5 C 12.878906 -21.894531 12.789062 -21.257812 12.6875 -20.59375 C 12.59375 -19.925781 12.488281 -19.238281 12.375 -18.53125 C 12.257812 -17.820312 12.125 -16.910156 11.96875 -15.796875 C 11.820312 -14.691406 11.613281 -13.304688 11.34375 -11.640625 L 11.78125 -11.640625 C 12.414062 -13.328125 12.941406 -14.726562 13.359375 -15.84375 C 13.785156 -16.96875 14.128906 -17.882812 14.390625 -18.59375 C 14.660156 -19.300781 14.9375 -19.992188 15.21875 -20.671875 C 15.5 -21.347656 15.765625 -21.988281 16.015625 -22.59375 C 16.273438 -23.207031 16.515625 -23.75 16.734375 -24.21875 C 17.285156 -24.257812 17.804688 -24.3125 18.296875 -24.375 C 18.785156 -24.445312 19.269531 -24.519531 19.75 -24.59375 C 20.238281 -24.675781 20.734375 -24.753906 21.234375 -24.828125 C 21.734375 -24.910156 22.285156 -25.003906 22.890625 -25.109375 C 22.660156 -23.828125 22.445312 -22.507812 22.25 -21.15625 C 22.050781 -19.800781 21.875 -18.453125 21.71875 -17.109375 C 21.5625 -15.773438 21.410156 -14.453125 21.265625 -13.140625 C 21.128906 -11.828125 21.003906 -10.585938 20.890625 -9.421875 C 20.617188 -6.671875 20.382812 -3.984375 20.1875 -1.359375 L 14.40625 -0.328125 C 14.40625 -0.441406 14.421875 -0.742188 14.453125 -1.234375 C 14.484375 -1.722656 14.523438 -2.320312 14.578125 -3.03125 C 14.640625 -3.738281 14.71875 -4.523438 14.8125 -5.390625 C 14.914062 -6.253906 15.015625 -7.117188 15.109375 -7.984375 C 15.210938 -8.847656 15.316406 -9.679688 15.421875 -10.484375 C 15.535156 -11.296875 15.648438 -11.992188 15.765625 -12.578125 L 15.46875 -12.578125 C 15.15625 -11.640625 14.8125 -10.65625 14.4375 -9.625 C 14.0625 -8.59375 13.675781 -7.546875 13.28125 -6.484375 C 12.894531 -5.421875 12.515625 -4.378906 12.140625 -3.359375 C 11.765625 -2.335938 11.429688 -1.363281 11.140625 -0.4375 C 10.367188 -0.414062 9.703125 -0.382812 9.140625 -0.34375 C 8.585938 -0.3125 7.945312 -0.273438 7.21875 -0.234375 L 8.28125 -12.578125 L 7.78125 -12.578125 C 7.738281 -12.285156 7.628906 -11.800781 7.453125 -11.125 C 7.273438 -10.445312 7.066406 -9.671875 6.828125 -8.796875 C 6.597656 -7.921875 6.347656 -7.007812 6.078125 -6.0625 C 5.816406 -5.125 5.566406 -4.25 5.328125 -3.4375 C 5.097656 -2.632812 4.90625 -1.972656 4.75 -1.453125 C 4.601562 -0.929688 4.515625 -0.632812 4.484375 -0.5625 Z M -1 -0.203125 "/></g></g></g><g fill="#1d97f1" fill-opacity="0.7216"><g transform="translate(37.616088, 32.705545)"><g><path d="M 12.234375 -0.671875 C 11.679688 -0.578125 11.070312 -0.472656 10.40625 -0.359375 C 9.75 -0.253906 9.148438 -0.15625 8.609375 -0.0625 C 8.703125 -0.800781 8.789062 -1.523438 8.875 -2.234375 C 8.945312 -2.847656 9.007812 -3.460938 9.0625 -4.078125 C 9.113281 -4.703125 9.164062 -5.238281 9.21875 -5.6875 L 6.328125 -5.6875 L 4.984375 -0.890625 C 4.503906 -0.828125 3.929688 -0.753906 3.265625 -0.671875 C 2.597656 -0.597656 1.972656 -0.53125 1.390625 -0.46875 C 0.679688 -0.375 -0.015625 -0.285156 -0.703125 -0.203125 C 0.179688 -3.148438 1.054688 -6.054688 1.921875 -8.921875 C 2.285156 -10.117188 2.660156 -11.367188 3.046875 -12.671875 C 3.429688 -13.984375 3.816406 -15.285156 4.203125 -16.578125 C 4.597656 -17.878906 4.972656 -19.128906 5.328125 -20.328125 C 5.679688 -21.523438 5.988281 -22.625 6.25 -23.625 C 7.757812 -23.726562 9.296875 -23.859375 10.859375 -24.015625 C 12.421875 -24.171875 13.945312 -24.382812 15.4375 -24.65625 C 15.363281 -23.9375 15.289062 -23.050781 15.21875 -22 C 15.144531 -20.945312 15.070312 -19.800781 15 -18.5625 C 14.9375 -17.320312 14.867188 -16.023438 14.796875 -14.671875 C 14.734375 -13.316406 14.671875 -11.984375 14.609375 -10.671875 C 14.492188 -7.617188 14.367188 -4.375 14.234375 -0.9375 C 13.566406 -0.820312 12.898438 -0.734375 12.234375 -0.671875 Z M 7.125 -9.015625 C 7.207031 -9.015625 7.363281 -9.019531 7.59375 -9.03125 C 7.832031 -9.039062 8.078125 -9.050781 8.328125 -9.0625 C 8.585938 -9.070312 8.828125 -9.082031 9.046875 -9.09375 C 9.265625 -9.101562 9.421875 -9.117188 9.515625 -9.140625 C 9.515625 -9.273438 9.53125 -9.503906 9.5625 -9.828125 C 9.59375 -10.148438 9.625 -10.515625 9.65625 -10.921875 C 9.695312 -11.335938 9.738281 -11.785156 9.78125 -12.265625 C 9.820312 -12.753906 9.863281 -13.234375 9.90625 -13.703125 C 10 -14.835938 10.113281 -16.054688 10.25 -17.359375 L 10.453125 -20.265625 L 9.953125 -20.21875 L 9.1875 -17.359375 Z M 7.125 -9.015625 "/></g></g></g><g fill="#1d97f1" fill-opacity="0.7216"><g transform="translate(52.018118, 32.705545)"><g><path d="M 0.140625 0.03125 C 0.734375 -2.914062 1.304688 -5.796875 1.859375 -8.609375 C 2.054688 -9.804688 2.273438 -11.050781 2.515625 -12.34375 C 2.765625 -13.644531 2.992188 -14.929688 3.203125 -16.203125 C 3.421875 -17.484375 3.625 -18.71875 3.8125 -19.90625 C 4 -21.09375 4.148438 -22.175781 4.265625 -23.15625 C 5.523438 -23.550781 6.882812 -23.84375 8.34375 -24.03125 C 9.8125 -24.21875 11.265625 -24.3125 12.703125 -24.3125 C 13.566406 -24.3125 14.28125 -24.210938 14.84375 -24.015625 C 15.414062 -23.816406 15.863281 -23.535156 16.1875 -23.171875 C 16.507812 -22.804688 16.734375 -22.378906 16.859375 -21.890625 C 16.992188 -21.398438 17.0625 -20.859375 17.0625 -20.265625 C 17.0625 -19.367188 16.90625 -18.492188 16.59375 -17.640625 C 16.289062 -16.785156 15.878906 -15.976562 15.359375 -15.21875 C 14.835938 -14.457031 14.238281 -13.757812 13.5625 -13.125 C 12.882812 -12.488281 12.15625 -11.972656 11.375 -11.578125 C 11.769531 -10.691406 12.195312 -9.71875 12.65625 -8.65625 C 13.113281 -7.601562 13.539062 -6.601562 13.9375 -5.65625 C 14.382812 -4.539062 14.835938 -3.429688 15.296875 -2.328125 L 10.140625 -0.53125 C 9.703125 -1.945312 9.304688 -3.28125 8.953125 -4.53125 C 8.796875 -5.039062 8.640625 -5.566406 8.484375 -6.109375 C 8.328125 -6.648438 8.179688 -7.164062 8.046875 -7.65625 C 7.910156 -8.144531 7.796875 -8.582031 7.703125 -8.96875 C 7.617188 -9.351562 7.566406 -9.664062 7.546875 -9.90625 L 7.125 -9.78125 C 6.988281 -9.070312 6.828125 -8.238281 6.640625 -7.28125 C 6.453125 -6.332031 6.28125 -5.414062 6.125 -4.53125 C 5.925781 -3.476562 5.722656 -2.421875 5.515625 -1.359375 Z M 7.953125 -14.40625 C 8.367188 -14.445312 8.878906 -14.625 9.484375 -14.9375 C 10.097656 -15.25 10.679688 -15.617188 11.234375 -16.046875 C 11.796875 -16.484375 12.273438 -16.929688 12.671875 -17.390625 C 13.066406 -17.859375 13.265625 -18.269531 13.265625 -18.625 C 13.265625 -18.875 13.1875 -19.066406 13.03125 -19.203125 C 12.882812 -19.347656 12.671875 -19.457031 12.390625 -19.53125 C 12.109375 -19.613281 11.800781 -19.664062 11.46875 -19.6875 C 11.144531 -19.707031 10.804688 -19.71875 10.453125 -19.71875 C 10.203125 -19.71875 9.945312 -19.710938 9.6875 -19.703125 C 9.4375 -19.691406 9.210938 -19.6875 9.015625 -19.6875 Z M 7.953125 -14.40625 "/></g></g></g><g fill="#1d97f1" fill-opacity="0.7216"><g transform="translate(66.786023, 32.705545)"><g><path d="M 3 0.03125 C 3.507812 -2.40625 3.992188 -4.8125 4.453125 -7.1875 C 4.648438 -8.1875 4.847656 -9.226562 5.046875 -10.3125 C 5.253906 -11.394531 5.453125 -12.460938 5.640625 -13.515625 C 5.828125 -14.578125 5.992188 -15.597656 6.140625 -16.578125 C 6.285156 -17.566406 6.410156 -18.472656 6.515625 -19.296875 C 6.003906 -19.359375 5.488281 -19.378906 4.96875 -19.359375 C 4.445312 -19.335938 3.929688 -19.40625 3.421875 -19.5625 C 3.441406 -19.914062 3.453125 -20.320312 3.453125 -20.78125 C 3.453125 -21.25 3.46875 -21.71875 3.5 -22.1875 C 3.519531 -22.695312 3.539062 -23.238281 3.5625 -23.8125 C 4.132812 -23.769531 4.707031 -23.738281 5.28125 -23.71875 C 5.863281 -23.695312 6.441406 -23.6875 7.015625 -23.6875 C 8.148438 -23.6875 9.242188 -23.710938 10.296875 -23.765625 C 11.347656 -23.816406 12.320312 -23.878906 13.21875 -23.953125 C 14.125 -24.035156 15.007812 -24.132812 15.875 -24.25 L 15.5 -22.453125 C 15.382812 -21.941406 15.273438 -21.421875 15.171875 -20.890625 C 15.078125 -20.359375 14.988281 -19.90625 14.90625 -19.53125 C 14.414062 -19.394531 13.921875 -19.296875 13.421875 -19.234375 C 12.921875 -19.179688 12.425781 -19.113281 11.9375 -19.03125 C 11.78125 -18.269531 11.613281 -17.429688 11.4375 -16.515625 C 11.257812 -15.597656 11.085938 -14.644531 10.921875 -13.65625 C 10.753906 -12.664062 10.59375 -11.660156 10.4375 -10.640625 C 10.289062 -9.617188 10.140625 -8.644531 9.984375 -7.71875 C 9.628906 -5.519531 9.296875 -3.242188 8.984375 -0.890625 Z M 3 0.03125 "/></g></g></g><g fill="#1d97f1" fill-opacity="0.7216"><g transform="translate(78.826512, 32.705545)"><g/></g></g><g fill="#1d97f1" fill-opacity="0.7216"><g transform="translate(85.312413, 32.705545)"><g><path d="M 12.234375 -0.671875 C 11.679688 -0.578125 11.070312 -0.472656 10.40625 -0.359375 C 9.75 -0.253906 9.148438 -0.15625 8.609375 -0.0625 C 8.703125 -0.800781 8.789062 -1.523438 8.875 -2.234375 C 8.945312 -2.847656 9.007812 -3.460938 9.0625 -4.078125 C 9.113281 -4.703125 9.164062 -5.238281 9.21875 -5.6875 L 6.328125 -5.6875 L 4.984375 -0.890625 C 4.503906 -0.828125 3.929688 -0.753906 3.265625 -0.671875 C 2.597656 -0.597656 1.972656 -0.53125 1.390625 -0.46875 C 0.679688 -0.375 -0.015625 -0.285156 -0.703125 -0.203125 C 0.179688 -3.148438 1.054688 -6.054688 1.921875 -8.921875 C 2.285156 -10.117188 2.660156 -11.367188 3.046875 -12.671875 C 3.429688 -13.984375 3.816406 -15.285156 4.203125 -16.578125 C 4.597656 -17.878906 4.972656 -19.128906 5.328125 -20.328125 C 5.679688 -21.523438 5.988281 -22.625 6.25 -23.625 C 7.757812 -23.726562 9.296875 -23.859375 10.859375 -24.015625 C 12.421875 -24.171875 13.945312 -24.382812 15.4375 -24.65625 C 15.363281 -23.9375 15.289062 -23.050781 15.21875 -22 C 15.144531 -20.945312 15.070312 -19.800781 15 -18.5625 C 14.9375 -17.320312 14.867188 -16.023438 14.796875 -14.671875 C 14.734375 -13.316406 14.671875 -11.984375 14.609375 -10.671875 C 14.492188 -7.617188 14.367188 -4.375 14.234375 -0.9375 C 13.566406 -0.820312 12.898438 -0.734375 12.234375 -0.671875 Z M 7.125 -9.015625 C 7.207031 -9.015625 7.363281 -9.019531 7.59375 -9.03125 C 7.832031 -9.039062 8.078125 -9.050781 8.328125 -9.0625 C 8.585938 -9.070312 8.828125 -9.082031 9.046875 -9.09375 C 9.265625 -9.101562 9.421875 -9.117188 9.515625 -9.140625 C 9.515625 -9.273438 9.53125 -9.503906 9.5625 -9.828125 C 9.59375 -10.148438 9.625 -10.515625 9.65625 -10.921875 C 9.695312 -11.335938 9.738281 -11.785156 9.78125 -12.265625 C 9.820312 -12.753906 9.863281 -13.234375 9.90625 -13.703125 C 10 -14.835938 10.113281 -16.054688 10.25 -17.359375 L 10.453125 -20.265625 L 9.953125 -20.21875 L 9.1875 -17.359375 Z M 7.125 -9.015625 "/></g></g></g><g fill="#1d97f1" fill-opacity="0.7216"><g transform="translate(99.714443, 32.705545)"><g><path d="M 9.1875 -1.0625 C 8.5 -1.0625 7.769531 -1.039062 7 -1 C 6.238281 -0.957031 5.46875 -0.890625 4.6875 -0.796875 C 3.914062 -0.710938 3.15625 -0.597656 2.40625 -0.453125 C 1.664062 -0.304688 1 -0.132812 0.40625 0.0625 C 0.53125 -0.9375 0.679688 -2.046875 0.859375 -3.265625 C 1.035156 -4.484375 1.238281 -5.742188 1.46875 -7.046875 C 1.707031 -8.359375 1.941406 -9.675781 2.171875 -11 C 2.410156 -12.332031 2.648438 -13.613281 2.890625 -14.84375 C 3.441406 -17.738281 4.03125 -20.695312 4.65625 -23.71875 L 10.484375 -24.484375 C 9.878906 -21.910156 9.300781 -19.40625 8.75 -16.96875 C 8.507812 -15.925781 8.265625 -14.84375 8.015625 -13.71875 C 7.773438 -12.601562 7.539062 -11.507812 7.3125 -10.4375 C 7.09375 -9.375 6.894531 -8.34375 6.71875 -7.34375 C 6.539062 -6.351562 6.394531 -5.46875 6.28125 -4.6875 C 6.84375 -4.726562 7.4375 -4.753906 8.0625 -4.765625 C 8.695312 -4.785156 9.257812 -4.796875 9.75 -4.796875 C 9.769531 -4.367188 9.800781 -3.945312 9.84375 -3.53125 C 9.882812 -3.125 9.929688 -2.753906 9.984375 -2.421875 C 10.046875 -2.085938 10.09375 -1.796875 10.125 -1.546875 C 10.15625 -1.296875 10.1875 -1.125 10.21875 -1.03125 C 10.039062 -1.03125 9.867188 -1.035156 9.703125 -1.046875 C 9.535156 -1.054688 9.363281 -1.0625 9.1875 -1.0625 Z M 9.1875 -1.0625 "/></g></g></g><g fill="#1d97f1" fill-opacity="0.7216"><g transform="translate(109.759279, 32.705545)"><g><path d="M 0.265625 0.03125 L 4.625 -23.625 L 15.140625 -24.515625 C 14.984375 -24.023438 14.847656 -23.523438 14.734375 -23.015625 C 14.628906 -22.597656 14.523438 -22.160156 14.421875 -21.703125 C 14.316406 -21.253906 14.234375 -20.847656 14.171875 -20.484375 C 13.953125 -20.460938 13.632812 -20.445312 13.21875 -20.4375 C 12.8125 -20.425781 12.375 -20.414062 11.90625 -20.40625 C 11.4375 -20.394531 10.960938 -20.390625 10.484375 -20.390625 C 10.015625 -20.390625 9.601562 -20.390625 9.25 -20.390625 L 8.078125 -14.4375 C 8.765625 -14.476562 9.410156 -14.507812 10.015625 -14.53125 C 10.503906 -14.5625 11.003906 -14.578125 11.515625 -14.578125 C 12.023438 -14.578125 12.398438 -14.585938 12.640625 -14.609375 C 12.554688 -13.984375 12.472656 -13.367188 12.390625 -12.765625 C 12.316406 -12.171875 12.222656 -11.5625 12.109375 -10.9375 C 11.890625 -10.914062 11.53125 -10.898438 11.03125 -10.890625 C 10.53125 -10.878906 10.023438 -10.863281 9.515625 -10.84375 C 8.941406 -10.820312 8.3125 -10.800781 7.625 -10.78125 L 6.484375 -4.65625 L 11.34375 -5.421875 L 11.015625 -1.625 Z M 0.265625 0.03125 "/></g></g></g><g fill="#1d97f1" fill-opacity="0.7216"><g transform="translate(121.101289, 32.705545)"><g><path d="M 14.203125 -7.15625 C 13.671875 -5.9375 13.078125 -4.875 12.421875 -3.96875 C 11.765625 -3.070312 11.078125 -2.316406 10.359375 -1.703125 C 9.640625 -1.097656 8.910156 -0.648438 8.171875 -0.359375 C 7.441406 -0.078125 6.734375 0.0625 6.046875 0.0625 C 5.359375 0.0625 4.734375 -0.0859375 4.171875 -0.390625 C 3.609375 -0.703125 3.113281 -1.171875 2.6875 -1.796875 C 2.269531 -2.421875 1.929688 -3.1875 1.671875 -4.09375 C 1.421875 -5 1.296875 -6.0625 1.296875 -7.28125 C 1.296875 -9.363281 1.582031 -11.421875 2.15625 -13.453125 C 2.738281 -15.484375 3.550781 -17.304688 4.59375 -18.921875 C 5.632812 -20.546875 6.867188 -21.847656 8.296875 -22.828125 C 9.734375 -23.816406 11.316406 -24.3125 13.046875 -24.3125 C 13.578125 -24.3125 14.082031 -24.203125 14.5625 -23.984375 C 15.050781 -23.765625 15.472656 -23.453125 15.828125 -23.046875 C 16.179688 -22.648438 16.460938 -22.160156 16.671875 -21.578125 C 16.890625 -21.003906 17 -20.363281 17 -19.65625 C 17 -19.519531 17 -19.378906 17 -19.234375 C 17 -19.097656 16.988281 -18.953125 16.96875 -18.796875 L 12.609375 -17.625 C 12.335938 -18.1875 12.023438 -18.46875 11.671875 -18.46875 C 11.316406 -18.46875 10.945312 -18.257812 10.5625 -17.84375 C 10.175781 -17.4375 9.789062 -16.90625 9.40625 -16.25 C 9.03125 -15.59375 8.664062 -14.859375 8.3125 -14.046875 C 7.957031 -13.242188 7.644531 -12.429688 7.375 -11.609375 C 7.113281 -10.785156 6.898438 -10.003906 6.734375 -9.265625 C 6.566406 -8.523438 6.484375 -7.921875 6.484375 -7.453125 C 6.484375 -6.742188 6.578125 -6.242188 6.765625 -5.953125 C 6.953125 -5.660156 7.203125 -5.515625 7.515625 -5.515625 C 7.765625 -5.515625 8.039062 -5.609375 8.34375 -5.796875 C 8.65625 -5.992188 8.941406 -6.238281 9.203125 -6.53125 C 9.472656 -6.832031 9.71875 -7.171875 9.9375 -7.546875 C 10.164062 -7.921875 10.320312 -8.300781 10.40625 -8.6875 Z M 14.203125 -7.15625 "/></g></g></g><g fill="#1d97f1" fill-opacity="0.7216"><g transform="translate(134.871353, 32.705545)"><g><path d="M 0.234375 0.03125 C 0.898438 -3.070312 1.519531 -6.085938 2.09375 -9.015625 C 2.3125 -10.273438 2.539062 -11.582031 2.78125 -12.9375 C 3.03125 -14.289062 3.257812 -15.632812 3.46875 -16.96875 C 3.6875 -18.300781 3.878906 -19.59375 4.046875 -20.84375 C 4.210938 -22.09375 4.335938 -23.226562 4.421875 -24.25 C 4.929688 -24.207031 5.507812 -24.164062 6.15625 -24.125 C 6.800781 -24.09375 7.398438 -24.054688 7.953125 -24.015625 C 8.617188 -23.972656 9.285156 -23.953125 9.953125 -23.953125 C 9.921875 -23.859375 9.882812 -23.691406 9.84375 -23.453125 C 9.800781 -23.210938 9.742188 -22.921875 9.671875 -22.578125 C 9.609375 -22.234375 9.535156 -21.847656 9.453125 -21.421875 C 9.378906 -21.003906 9.300781 -20.582031 9.21875 -20.15625 C 9.039062 -19.175781 8.835938 -18.078125 8.609375 -16.859375 L 8.8125 -16.90625 C 9.03125 -17.257812 9.34375 -17.75 9.75 -18.375 C 10.164062 -19.007812 10.59375 -19.679688 11.03125 -20.390625 C 11.476562 -21.097656 11.910156 -21.78125 12.328125 -22.4375 C 12.753906 -23.09375 13.113281 -23.65625 13.40625 -24.125 C 14.507812 -24.207031 15.613281 -24.300781 16.71875 -24.40625 C 17.832031 -24.519531 18.945312 -24.664062 20.0625 -24.84375 C 19.019531 -23.445312 18.007812 -22.070312 17.03125 -20.71875 C 16.613281 -20.144531 16.1875 -19.546875 15.75 -18.921875 C 15.320312 -18.304688 14.894531 -17.695312 14.46875 -17.09375 C 14.050781 -16.5 13.65625 -15.921875 13.28125 -15.359375 C 12.914062 -14.804688 12.59375 -14.300781 12.3125 -13.84375 C 12.800781 -11.601562 13.375 -9.4375 14.03125 -7.34375 C 14.695312 -5.257812 15.375 -3.132812 16.0625 -0.96875 C 15.550781 -0.988281 15.03125 -1.003906 14.5 -1.015625 C 13.96875 -1.023438 13.445312 -1.03125 12.9375 -1.03125 C 12.289062 -1.03125 11.664062 -1.023438 11.0625 -1.015625 C 10.46875 -1.003906 9.851562 -0.988281 9.21875 -0.96875 C 9.019531 -2.40625 8.800781 -3.914062 8.5625 -5.5 C 8.332031 -7.09375 8.117188 -8.609375 7.921875 -10.046875 L 7.3125 -9.34375 C 7.15625 -8.675781 6.984375 -7.851562 6.796875 -6.875 C 6.609375 -5.90625 6.425781 -4.96875 6.25 -4.0625 C 6.050781 -3 5.84375 -1.898438 5.625 -0.765625 Z M 0.234375 0.03125 "/></g></g></g><g fill="#ffffff" fill-opacity="1"><g transform="translate(0.610664, 30.357051)"><g><path d="M 14.734375 -8.21875 C 14.734375 -6.976562 14.492188 -5.851562 14.015625 -4.84375 C 13.546875 -3.832031 12.90625 -2.957031 12.09375 -2.21875 C 11.28125 -1.488281 10.320312 -0.925781 9.21875 -0.53125 C 8.125 -0.132812 6.945312 0.0625 5.6875 0.0625 C 4.800781 0.0625 3.914062 -0.171875 3.03125 -0.640625 C 2.144531 -1.117188 1.289062 -1.878906 0.46875 -2.921875 L 2.921875 -7.75 C 3.078125 -7.457031 3.3125 -7.160156 3.625 -6.859375 C 3.9375 -6.566406 4.285156 -6.304688 4.671875 -6.078125 C 5.054688 -5.859375 5.441406 -5.675781 5.828125 -5.53125 C 6.222656 -5.394531 6.578125 -5.328125 6.890625 -5.328125 C 7.148438 -5.328125 7.425781 -5.367188 7.71875 -5.453125 C 8.007812 -5.546875 8.273438 -5.679688 8.515625 -5.859375 C 8.753906 -6.035156 8.945312 -6.238281 9.09375 -6.46875 C 9.238281 -6.695312 9.3125 -6.96875 9.3125 -7.28125 C 9.3125 -7.8125 9.140625 -8.304688 8.796875 -8.765625 C 8.453125 -9.222656 8.023438 -9.65625 7.515625 -10.0625 C 7.003906 -10.46875 6.445312 -10.878906 5.84375 -11.296875 C 5.25 -11.722656 4.703125 -12.171875 4.203125 -12.640625 C 3.703125 -13.109375 3.273438 -13.628906 2.921875 -14.203125 C 2.566406 -14.773438 2.390625 -15.421875 2.390625 -16.140625 C 2.390625 -17.285156 2.734375 -18.359375 3.421875 -19.359375 C 4.109375 -20.359375 4.96875 -21.21875 6 -21.9375 C 7.03125 -22.65625 8.15625 -23.222656 9.375 -23.640625 C 10.59375 -24.066406 11.75 -24.28125 12.84375 -24.28125 C 13.4375 -24.28125 14 -24.207031 14.53125 -24.0625 C 15.0625 -23.914062 15.519531 -23.679688 15.90625 -23.359375 C 16.300781 -23.046875 16.613281 -22.644531 16.84375 -22.15625 C 17.082031 -21.664062 17.203125 -21.054688 17.203125 -20.328125 C 17.203125 -20.015625 17.171875 -19.703125 17.109375 -19.390625 C 17.054688 -19.078125 17.007812 -18.742188 16.96875 -18.390625 L 12.140625 -17 C 12.179688 -17.175781 12.21875 -17.351562 12.25 -17.53125 C 12.289062 -17.707031 12.3125 -17.882812 12.3125 -18.0625 C 12.3125 -18.726562 12.191406 -19.207031 11.953125 -19.5 C 11.722656 -19.800781 11.421875 -19.953125 11.046875 -19.953125 C 10.867188 -19.953125 10.648438 -19.882812 10.390625 -19.75 C 10.140625 -19.625 9.882812 -19.453125 9.625 -19.234375 C 9.375 -19.023438 9.160156 -18.773438 8.984375 -18.484375 C 8.804688 -18.203125 8.71875 -17.894531 8.71875 -17.5625 C 8.71875 -17.03125 8.863281 -16.585938 9.15625 -16.234375 C 9.457031 -15.878906 9.828125 -15.546875 10.265625 -15.234375 C 10.710938 -14.921875 11.195312 -14.601562 11.71875 -14.28125 C 12.25 -13.96875 12.734375 -13.554688 13.171875 -13.046875 C 13.617188 -12.535156 13.988281 -11.894531 14.28125 -11.125 C 14.582031 -10.363281 14.734375 -9.394531 14.734375 -8.21875 Z M 14.734375 -8.21875 "/></g></g></g><g fill="#ffffff" fill-opacity="1"><g transform="translate(14.912912, 30.357051)"><g><path d="M -1 -0.203125 C -0.0195312 -3.148438 0.910156 -6.039062 1.796875 -8.875 C 2.171875 -10.070312 2.554688 -11.328125 2.953125 -12.640625 C 3.359375 -13.953125 3.757812 -15.25 4.15625 -16.53125 C 4.550781 -17.820312 4.921875 -19.066406 5.265625 -20.265625 C 5.609375 -21.460938 5.914062 -22.566406 6.1875 -23.578125 C 7.40625 -23.578125 8.554688 -23.644531 9.640625 -23.78125 C 10.734375 -23.914062 11.910156 -24.039062 13.171875 -24.15625 C 13.109375 -23.664062 13.035156 -23.113281 12.953125 -22.5 C 12.878906 -21.894531 12.789062 -21.257812 12.6875 -20.59375 C 12.59375 -19.925781 12.488281 -19.238281 12.375 -18.53125 C 12.257812 -17.820312 12.125 -16.910156 11.96875 -15.796875 C 11.820312 -14.691406 11.613281 -13.304688 11.34375 -11.640625 L 11.78125 -11.640625 C 12.414062 -13.328125 12.941406 -14.726562 13.359375 -15.84375 C 13.785156 -16.96875 14.128906 -17.882812 14.390625 -18.59375 C 14.660156 -19.300781 14.9375 -19.992188 15.21875 -20.671875 C 15.5 -21.347656 15.765625 -21.988281 16.015625 -22.59375 C 16.273438 -23.207031 16.515625 -23.75 16.734375 -24.21875 C 17.285156 -24.257812 17.804688 -24.3125 18.296875 -24.375 C 18.785156 -24.445312 19.269531 -24.519531 19.75 -24.59375 C 20.238281 -24.675781 20.734375 -24.753906 21.234375 -24.828125 C 21.734375 -24.910156 22.285156 -25.003906 22.890625 -25.109375 C 22.660156 -23.828125 22.445312 -22.507812 22.25 -21.15625 C 22.050781 -19.800781 21.875 -18.453125 21.71875 -17.109375 C 21.5625 -15.773438 21.410156 -14.453125 21.265625 -13.140625 C 21.128906 -11.828125 21.003906 -10.585938 20.890625 -9.421875 C 20.617188 -6.671875 20.382812 -3.984375 20.1875 -1.359375 L 14.40625 -0.328125 C 14.40625 -0.441406 14.421875 -0.742188 14.453125 -1.234375 C 14.484375 -1.722656 14.523438 -2.320312 14.578125 -3.03125 C 14.640625 -3.738281 14.71875 -4.523438 14.8125 -5.390625 C 14.914062 -6.253906 15.015625 -7.117188 15.109375 -7.984375 C 15.210938 -8.847656 15.316406 -9.679688 15.421875 -10.484375 C 15.535156 -11.296875 15.648438 -11.992188 15.765625 -12.578125 L 15.46875 -12.578125 C 15.15625 -11.640625 14.8125 -10.65625 14.4375 -9.625 C 14.0625 -8.59375 13.675781 -7.546875 13.28125 -6.484375 C 12.894531 -5.421875 12.515625 -4.378906 12.140625 -3.359375 C 11.765625 -2.335938 11.429688 -1.363281 11.140625 -0.4375 C 10.367188 -0.414062 9.703125 -0.382812 9.140625 -0.34375 C 8.585938 -0.3125 7.945312 -0.273438 7.21875 -0.234375 L 8.28125 -12.578125 L 7.78125 -12.578125 C 7.738281 -12.285156 7.628906 -11.800781 7.453125 -11.125 C 7.273438 -10.445312 7.066406 -9.671875 6.828125 -8.796875 C 6.597656 -7.921875 6.347656 -7.007812 6.078125 -6.0625 C 5.816406 -5.125 5.566406 -4.25 5.328125 -3.4375 C 5.097656 -2.632812 4.90625 -1.972656 4.75 -1.453125 C 4.601562 -0.929688 4.515625 -0.632812 4.484375 -0.5625 Z M -1 -0.203125 "/></g></g></g><g fill="#ffffff" fill-opacity="1"><g transform="translate(35.501496, 30.357051)"><g><path d="M 12.234375 -0.671875 C 11.679688 -0.578125 11.070312 -0.472656 10.40625 -0.359375 C 9.75 -0.253906 9.148438 -0.15625 8.609375 -0.0625 C 8.703125 -0.800781 8.789062 -1.523438 8.875 -2.234375 C 8.945312 -2.847656 9.007812 -3.460938 9.0625 -4.078125 C 9.113281 -4.703125 9.164062 -5.238281 9.21875 -5.6875 L 6.328125 -5.6875 L 4.984375 -0.890625 C 4.503906 -0.828125 3.929688 -0.753906 3.265625 -0.671875 C 2.597656 -0.597656 1.972656 -0.53125 1.390625 -0.46875 C 0.679688 -0.375 -0.015625 -0.285156 -0.703125 -0.203125 C 0.179688 -3.148438 1.054688 -6.054688 1.921875 -8.921875 C 2.285156 -10.117188 2.660156 -11.367188 3.046875 -12.671875 C 3.429688 -13.984375 3.816406 -15.285156 4.203125 -16.578125 C 4.597656 -17.878906 4.972656 -19.128906 5.328125 -20.328125 C 5.679688 -21.523438 5.988281 -22.625 6.25 -23.625 C 7.757812 -23.726562 9.296875 -23.859375 10.859375 -24.015625 C 12.421875 -24.171875 13.945312 -24.382812 15.4375 -24.65625 C 15.363281 -23.9375 15.289062 -23.050781 15.21875 -22 C 15.144531 -20.945312 15.070312 -19.800781 15 -18.5625 C 14.9375 -17.320312 14.867188 -16.023438 14.796875 -14.671875 C 14.734375 -13.316406 14.671875 -11.984375 14.609375 -10.671875 C 14.492188 -7.617188 14.367188 -4.375 14.234375 -0.9375 C 13.566406 -0.820312 12.898438 -0.734375 12.234375 -0.671875 Z M 7.125 -9.015625 C 7.207031 -9.015625 7.363281 -9.019531 7.59375 -9.03125 C 7.832031 -9.039062 8.078125 -9.050781 8.328125 -9.0625 C 8.585938 -9.070312 8.828125 -9.082031 9.046875 -9.09375 C 9.265625 -9.101562 9.421875 -9.117188 9.515625 -9.140625 C 9.515625 -9.273438 9.53125 -9.503906 9.5625 -9.828125 C 9.59375 -10.148438 9.625 -10.515625 9.65625 -10.921875 C 9.695312 -11.335938 9.738281 -11.785156 9.78125 -12.265625 C 9.820312 -12.753906 9.863281 -13.234375 9.90625 -13.703125 C 10 -14.835938 10.113281 -16.054688 10.25 -17.359375 L 10.453125 -20.265625 L 9.953125 -20.21875 L 9.1875 -17.359375 Z M 7.125 -9.015625 "/></g></g></g><g fill="#ffffff" fill-opacity="1"><g transform="translate(49.903526, 30.357051)"><g><path d="M 0.140625 0.03125 C 0.734375 -2.914062 1.304688 -5.796875 1.859375 -8.609375 C 2.054688 -9.804688 2.273438 -11.050781 2.515625 -12.34375 C 2.765625 -13.644531 2.992188 -14.929688 3.203125 -16.203125 C 3.421875 -17.484375 3.625 -18.71875 3.8125 -19.90625 C 4 -21.09375 4.148438 -22.175781 4.265625 -23.15625 C 5.523438 -23.550781 6.882812 -23.84375 8.34375 -24.03125 C 9.8125 -24.21875 11.265625 -24.3125 12.703125 -24.3125 C 13.566406 -24.3125 14.28125 -24.210938 14.84375 -24.015625 C 15.414062 -23.816406 15.863281 -23.535156 16.1875 -23.171875 C 16.507812 -22.804688 16.734375 -22.378906 16.859375 -21.890625 C 16.992188 -21.398438 17.0625 -20.859375 17.0625 -20.265625 C 17.0625 -19.367188 16.90625 -18.492188 16.59375 -17.640625 C 16.289062 -16.785156 15.878906 -15.976562 15.359375 -15.21875 C 14.835938 -14.457031 14.238281 -13.757812 13.5625 -13.125 C 12.882812 -12.488281 12.15625 -11.972656 11.375 -11.578125 C 11.769531 -10.691406 12.195312 -9.71875 12.65625 -8.65625 C 13.113281 -7.601562 13.539062 -6.601562 13.9375 -5.65625 C 14.382812 -4.539062 14.835938 -3.429688 15.296875 -2.328125 L 10.140625 -0.53125 C 9.703125 -1.945312 9.304688 -3.28125 8.953125 -4.53125 C 8.796875 -5.039062 8.640625 -5.566406 8.484375 -6.109375 C 8.328125 -6.648438 8.179688 -7.164062 8.046875 -7.65625 C 7.910156 -8.144531 7.796875 -8.582031 7.703125 -8.96875 C 7.617188 -9.351562 7.566406 -9.664062 7.546875 -9.90625 L 7.125 -9.78125 C 6.988281 -9.070312 6.828125 -8.238281 6.640625 -7.28125 C 6.453125 -6.332031 6.28125 -5.414062 6.125 -4.53125 C 5.925781 -3.476562 5.722656 -2.421875 5.515625 -1.359375 Z M 7.953125 -14.40625 C 8.367188 -14.445312 8.878906 -14.625 9.484375 -14.9375 C 10.097656 -15.25 10.679688 -15.617188 11.234375 -16.046875 C 11.796875 -16.484375 12.273438 -16.929688 12.671875 -17.390625 C 13.066406 -17.859375 13.265625 -18.269531 13.265625 -18.625 C 13.265625 -18.875 13.1875 -19.066406 13.03125 -19.203125 C 12.882812 -19.347656 12.671875 -19.457031 12.390625 -19.53125 C 12.109375 -19.613281 11.800781 -19.664062 11.46875 -19.6875 C 11.144531 -19.707031 10.804688 -19.71875 10.453125 -19.71875 C 10.203125 -19.71875 9.945312 -19.710938 9.6875 -19.703125 C 9.4375 -19.691406 9.210938 -19.6875 9.015625 -19.6875 Z M 7.953125 -14.40625 "/></g></g></g><g fill="#ffffff" fill-opacity="1"><g transform="translate(64.671431, 30.357051)"><g><path d="M 3 0.03125 C 3.507812 -2.40625 3.992188 -4.8125 4.453125 -7.1875 C 4.648438 -8.1875 4.847656 -9.226562 5.046875 -10.3125 C 5.253906 -11.394531 5.453125 -12.460938 5.640625 -13.515625 C 5.828125 -14.578125 5.992188 -15.597656 6.140625 -16.578125 C 6.285156 -17.566406 6.410156 -18.472656 6.515625 -19.296875 C 6.003906 -19.359375 5.488281 -19.378906 4.96875 -19.359375 C 4.445312 -19.335938 3.929688 -19.40625 3.421875 -19.5625 C 3.441406 -19.914062 3.453125 -20.320312 3.453125 -20.78125 C 3.453125 -21.25 3.46875 -21.71875 3.5 -22.1875 C 3.519531 -22.695312 3.539062 -23.238281 3.5625 -23.8125 C 4.132812 -23.769531 4.707031 -23.738281 5.28125 -23.71875 C 5.863281 -23.695312 6.441406 -23.6875 7.015625 -23.6875 C 8.148438 -23.6875 9.242188 -23.710938 10.296875 -23.765625 C 11.347656 -23.816406 12.320312 -23.878906 13.21875 -23.953125 C 14.125 -24.035156 15.007812 -24.132812 15.875 -24.25 L 15.5 -22.453125 C 15.382812 -21.941406 15.273438 -21.421875 15.171875 -20.890625 C 15.078125 -20.359375 14.988281 -19.90625 14.90625 -19.53125 C 14.414062 -19.394531 13.921875 -19.296875 13.421875 -19.234375 C 12.921875 -19.179688 12.425781 -19.113281 11.9375 -19.03125 C 11.78125 -18.269531 11.613281 -17.429688 11.4375 -16.515625 C 11.257812 -15.597656 11.085938 -14.644531 10.921875 -13.65625 C 10.753906 -12.664062 10.59375 -11.660156 10.4375 -10.640625 C 10.289062 -9.617188 10.140625 -8.644531 9.984375 -7.71875 C 9.628906 -5.519531 9.296875 -3.242188 8.984375 -0.890625 Z M 3 0.03125 "/></g></g></g><g fill="#ffffff" fill-opacity="1"><g transform="translate(76.711919, 30.357051)"><g/></g></g><g fill="#ffffff" fill-opacity="1"><g transform="translate(83.197821, 30.357051)"><g><path d="M 12.234375 -0.671875 C 11.679688 -0.578125 11.070312 -0.472656 10.40625 -0.359375 C 9.75 -0.253906 9.148438 -0.15625 8.609375 -0.0625 C 8.703125 -0.800781 8.789062 -1.523438 8.875 -2.234375 C 8.945312 -2.847656 9.007812 -3.460938 9.0625 -4.078125 C 9.113281 -4.703125 9.164062 -5.238281 9.21875 -5.6875 L 6.328125 -5.6875 L 4.984375 -0.890625 C 4.503906 -0.828125 3.929688 -0.753906 3.265625 -0.671875 C 2.597656 -0.597656 1.972656 -0.53125 1.390625 -0.46875 C 0.679688 -0.375 -0.015625 -0.285156 -0.703125 -0.203125 C 0.179688 -3.148438 1.054688 -6.054688 1.921875 -8.921875 C 2.285156 -10.117188 2.660156 -11.367188 3.046875 -12.671875 C 3.429688 -13.984375 3.816406 -15.285156 4.203125 -16.578125 C 4.597656 -17.878906 4.972656 -19.128906 5.328125 -20.328125 C 5.679688 -21.523438 5.988281 -22.625 6.25 -23.625 C 7.757812 -23.726562 9.296875 -23.859375 10.859375 -24.015625 C 12.421875 -24.171875 13.945312 -24.382812 15.4375 -24.65625 C 15.363281 -23.9375 15.289062 -23.050781 15.21875 -22 C 15.144531 -20.945312 15.070312 -19.800781 15 -18.5625 C 14.9375 -17.320312 14.867188 -16.023438 14.796875 -14.671875 C 14.734375 -13.316406 14.671875 -11.984375 14.609375 -10.671875 C 14.492188 -7.617188 14.367188 -4.375 14.234375 -0.9375 C 13.566406 -0.820312 12.898438 -0.734375 12.234375 -0.671875 Z M 7.125 -9.015625 C 7.207031 -9.015625 7.363281 -9.019531 7.59375 -9.03125 C 7.832031 -9.039062 8.078125 -9.050781 8.328125 -9.0625 C 8.585938 -9.070312 8.828125 -9.082031 9.046875 -9.09375 C 9.265625 -9.101562 9.421875 -9.117188 9.515625 -9.140625 C 9.515625 -9.273438 9.53125 -9.503906 9.5625 -9.828125 C 9.59375 -10.148438 9.625 -10.515625 9.65625 -10.921875 C 9.695312 -11.335938 9.738281 -11.785156 9.78125 -12.265625 C 9.820312 -12.753906 9.863281 -13.234375 9.90625 -13.703125 C 10 -14.835938 10.113281 -16.054688 10.25 -17.359375 L 10.453125 -20.265625 L 9.953125 -20.21875 L 9.1875 -17.359375 Z M 7.125 -9.015625 "/></g></g></g><g fill="#ffffff" fill-opacity="1"><g transform="translate(97.599851, 30.357051)"><g><path d="M 9.1875 -1.0625 C 8.5 -1.0625 7.769531 -1.039062 7 -1 C 6.238281 -0.957031 5.46875 -0.890625 4.6875 -0.796875 C 3.914062 -0.710938 3.15625 -0.597656 2.40625 -0.453125 C 1.664062 -0.304688 1 -0.132812 0.40625 0.0625 C 0.53125 -0.9375 0.679688 -2.046875 0.859375 -3.265625 C 1.035156 -4.484375 1.238281 -5.742188 1.46875 -7.046875 C 1.707031 -8.359375 1.941406 -9.675781 2.171875 -11 C 2.410156 -12.332031 2.648438 -13.613281 2.890625 -14.84375 C 3.441406 -17.738281 4.03125 -20.695312 4.65625 -23.71875 L 10.484375 -24.484375 C 9.878906 -21.910156 9.300781 -19.40625 8.75 -16.96875 C 8.507812 -15.925781 8.265625 -14.84375 8.015625 -13.71875 C 7.773438 -12.601562 7.539062 -11.507812 7.3125 -10.4375 C 7.09375 -9.375 6.894531 -8.34375 6.71875 -7.34375 C 6.539062 -6.351562 6.394531 -5.46875 6.28125 -4.6875 C 6.84375 -4.726562 7.4375 -4.753906 8.0625 -4.765625 C 8.695312 -4.785156 9.257812 -4.796875 9.75 -4.796875 C 9.769531 -4.367188 9.800781 -3.945312 9.84375 -3.53125 C 9.882812 -3.125 9.929688 -2.753906 9.984375 -2.421875 C 10.046875 -2.085938 10.09375 -1.796875 10.125 -1.546875 C 10.15625 -1.296875 10.1875 -1.125 10.21875 -1.03125 C 10.039062 -1.03125 9.867188 -1.035156 9.703125 -1.046875 C 9.535156 -1.054688 9.363281 -1.0625 9.1875 -1.0625 Z M 9.1875 -1.0625 "/></g></g></g><g fill="#ffffff" fill-opacity="1"><g transform="translate(107.644686, 30.357051)"><g><path d="M 0.265625 0.03125 L 4.625 -23.625 L 15.140625 -24.515625 C 14.984375 -24.023438 14.847656 -23.523438 14.734375 -23.015625 C 14.628906 -22.597656 14.523438 -22.160156 14.421875 -21.703125 C 14.316406 -21.253906 14.234375 -20.847656 14.171875 -20.484375 C 13.953125 -20.460938 13.632812 -20.445312 13.21875 -20.4375 C 12.8125 -20.425781 12.375 -20.414062 11.90625 -20.40625 C 11.4375 -20.394531 10.960938 -20.390625 10.484375 -20.390625 C 10.015625 -20.390625 9.601562 -20.390625 9.25 -20.390625 L 8.078125 -14.4375 C 8.765625 -14.476562 9.410156 -14.507812 10.015625 -14.53125 C 10.503906 -14.5625 11.003906 -14.578125 11.515625 -14.578125 C 12.023438 -14.578125 12.398438 -14.585938 12.640625 -14.609375 C 12.554688 -13.984375 12.472656 -13.367188 12.390625 -12.765625 C 12.316406 -12.171875 12.222656 -11.5625 12.109375 -10.9375 C 11.890625 -10.914062 11.53125 -10.898438 11.03125 -10.890625 C 10.53125 -10.878906 10.023438 -10.863281 9.515625 -10.84375 C 8.941406 -10.820312 8.3125 -10.800781 7.625 -10.78125 L 6.484375 -4.65625 L 11.34375 -5.421875 L 11.015625 -1.625 Z M 0.265625 0.03125 "/></g></g></g><g fill="#ffffff" fill-opacity="1"><g transform="translate(118.986696, 30.357051)"><g><path d="M 14.203125 -7.15625 C 13.671875 -5.9375 13.078125 -4.875 12.421875 -3.96875 C 11.765625 -3.070312 11.078125 -2.316406 10.359375 -1.703125 C 9.640625 -1.097656 8.910156 -0.648438 8.171875 -0.359375 C 7.441406 -0.078125 6.734375 0.0625 6.046875 0.0625 C 5.359375 0.0625 4.734375 -0.0859375 4.171875 -0.390625 C 3.609375 -0.703125 3.113281 -1.171875 2.6875 -1.796875 C 2.269531 -2.421875 1.929688 -3.1875 1.671875 -4.09375 C 1.421875 -5 1.296875 -6.0625 1.296875 -7.28125 C 1.296875 -9.363281 1.582031 -11.421875 2.15625 -13.453125 C 2.738281 -15.484375 3.550781 -17.304688 4.59375 -18.921875 C 5.632812 -20.546875 6.867188 -21.847656 8.296875 -22.828125 C 9.734375 -23.816406 11.316406 -24.3125 13.046875 -24.3125 C 13.578125 -24.3125 14.082031 -24.203125 14.5625 -23.984375 C 15.050781 -23.765625 15.472656 -23.453125 15.828125 -23.046875 C 16.179688 -22.648438 16.460938 -22.160156 16.671875 -21.578125 C 16.890625 -21.003906 17 -20.363281 17 -19.65625 C 17 -19.519531 17 -19.378906 17 -19.234375 C 17 -19.097656 16.988281 -18.953125 16.96875 -18.796875 L 12.609375 -17.625 C 12.335938 -18.1875 12.023438 -18.46875 11.671875 -18.46875 C 11.316406 -18.46875 10.945312 -18.257812 10.5625 -17.84375 C 10.175781 -17.4375 9.789062 -16.90625 9.40625 -16.25 C 9.03125 -15.59375 8.664062 -14.859375 8.3125 -14.046875 C 7.957031 -13.242188 7.644531 -12.429688 7.375 -11.609375 C 7.113281 -10.785156 6.898438 -10.003906 6.734375 -9.265625 C 6.566406 -8.523438 6.484375 -7.921875 6.484375 -7.453125 C 6.484375 -6.742188 6.578125 -6.242188 6.765625 -5.953125 C 6.953125 -5.660156 7.203125 -5.515625 7.515625 -5.515625 C 7.765625 -5.515625 8.039062 -5.609375 8.34375 -5.796875 C 8.65625 -5.992188 8.941406 -6.238281 9.203125 -6.53125 C 9.472656 -6.832031 9.71875 -7.171875 9.9375 -7.546875 C 10.164062 -7.921875 10.320312 -8.300781 10.40625 -8.6875 Z M 14.203125 -7.15625 "/></g></g></g><g fill="#ffffff" fill-opacity="1"><g transform="translate(132.756761, 30.357051)"><g><path d="M 0.234375 0.03125 C 0.898438 -3.070312 1.519531 -6.085938 2.09375 -9.015625 C 2.3125 -10.273438 2.539062 -11.582031 2.78125 -12.9375 C 3.03125 -14.289062 3.257812 -15.632812 3.46875 -16.96875 C 3.6875 -18.300781 3.878906 -19.59375 4.046875 -20.84375 C 4.210938 -22.09375 4.335938 -23.226562 4.421875 -24.25 C 4.929688 -24.207031 5.507812 -24.164062 6.15625 -24.125 C 6.800781 -24.09375 7.398438 -24.054688 7.953125 -24.015625 C 8.617188 -23.972656 9.285156 -23.953125 9.953125 -23.953125 C 9.921875 -23.859375 9.882812 -23.691406 9.84375 -23.453125 C 9.800781 -23.210938 9.742188 -22.921875 9.671875 -22.578125 C 9.609375 -22.234375 9.535156 -21.847656 9.453125 -21.421875 C 9.378906 -21.003906 9.300781 -20.582031 9.21875 -20.15625 C 9.039062 -19.175781 8.835938 -18.078125 8.609375 -16.859375 L 8.8125 -16.90625 C 9.03125 -17.257812 9.34375 -17.75 9.75 -18.375 C 10.164062 -19.007812 10.59375 -19.679688 11.03125 -20.390625 C 11.476562 -21.097656 11.910156 -21.78125 12.328125 -22.4375 C 12.753906 -23.09375 13.113281 -23.65625 13.40625 -24.125 C 14.507812 -24.207031 15.613281 -24.300781 16.71875 -24.40625 C 17.832031 -24.519531 18.945312 -24.664062 20.0625 -24.84375 C 19.019531 -23.445312 18.007812 -22.070312 17.03125 -20.71875 C 16.613281 -20.144531 16.1875 -19.546875 15.75 -18.921875 C 15.320312 -18.304688 14.894531 -17.695312 14.46875 -17.09375 C 14.050781 -16.5 13.65625 -15.921875 13.28125 -15.359375 C 12.914062 -14.804688 12.59375 -14.300781 12.3125 -13.84375 C 12.800781 -11.601562 13.375 -9.4375 14.03125 -7.34375 C 14.695312 -5.257812 15.375 -3.132812 16.0625 -0.96875 C 15.550781 -0.988281 15.03125 -1.003906 14.5 -1.015625 C 13.96875 -1.023438 13.445312 -1.03125 12.9375 -1.03125 C 12.289062 -1.03125 11.664062 -1.023438 11.0625 -1.015625 C 10.46875 -1.003906 9.851562 -0.988281 9.21875 -0.96875 C 9.019531 -2.40625 8.800781 -3.914062 8.5625 -5.5 C 8.332031 -7.09375 8.117188 -8.609375 7.921875 -10.046875 L 7.3125 -9.34375 C 7.15625 -8.675781 6.984375 -7.851562 6.796875 -6.875 C 6.609375 -5.90625 6.425781 -4.96875 6.25 -4.0625 C 6.050781 -3 5.84375 -1.898438 5.625 -0.765625 Z M 0.234375 0.03125 "/></g></g></g></g></g></g></g></g></svg>